<mxfile host="app.diagrams.net" modified="2023-12-13T07:03:28.544Z" agent="Mozilla/5.0 (Windows NT 10.0; Win64; x64) AppleWebKit/537.36 (KHTML, like Gecko) Chrome/120.0.0.0 Safari/537.36" version="22.1.8" etag="W8ijoy68YP1GK5KZeLUn" type="github">
  <diagram name="Page-1" id="qqtDPv5w3B7Jq6Awbjkm">
    <mxGraphModel>
      <root>
        <mxCell id="0" />
        <mxCell id="1" parent="0" />
      </root>
    </mxGraphModel>
  </diagram>
</mxfile>
